<?xml version="1.0" encoding="UTF-8"?><svg id="_圖層_2" xmlns="http://www.w3.org/2000/svg" viewBox="0 0 13.52 17.76"><defs><style>.cls-1{fill:#fff;}</style></defs><g id="_圖層_2-2"><path class="cls-1" d="M11.08,2.72h2.19L10.79.24v2.19c0,.16.13.3.3.3Z"/><path class="cls-1" d="M11.08,3.42c-.55,0-1-.45-1-1V0H.62c-.34,0-.62.28-.62.62v16.52c0,.34.28.62.62.62h12.28c.34,0,.62-.28.62-.62V3.42h-2.44ZM1.61,2.28h7.32c.14,0,.26.12.26.26s-.12.26-.26.26H1.61c-.14,0-.26-.12-.26-.26s.12-.26.26-.26ZM11.91,14.65H1.61c-.14,0-.26-.12-.26-.26s.12-.26.26-.26h10.3c.14,0,.26.12.26.26s-.12.26-.26.26ZM11.91,12.67H1.61c-.14,0-.26-.12-.26-.26s.12-.26.26-.26h10.3c.14,0,.26.12.26.26s-.12.26-.26.26ZM11.91,10.7H1.61c-.14,0-.26-.12-.26-.26s.12-.26.26-.26h10.3c.14,0,.26.12.26.26s-.12.26-.26.26ZM11.91,8.73H1.61c-.14,0-.26-.12-.26-.26s.12-.26.26-.26h10.3c.14,0,.26.12.26.26s-.12.26-.26.26ZM11.91,6.75H1.61c-.14,0-.26-.12-.26-.26s.12-.26.26-.26h10.3c.14,0,.26.12.26.26s-.12.26-.26.26ZM11.91,4.78H1.61c-.14,0-.26-.12-.26-.26s.12-.26.26-.26h10.3c.14,0,.26.12.26.26s-.12.26-.26.26Z"/></g></svg>