<?xml version="1.0" encoding="UTF-8"?><svg id="_圖層_2" xmlns="http://www.w3.org/2000/svg" viewBox="0 0 13.12 17.82"><defs><style>.cls-1{fill:#fff;}</style></defs><g id="_圖層_2-2"><path class="cls-1" d="M6.56,9.34c-1.56,0-2.77-1.31-3.43-2.59-.48-.2-.92-.73-1.12-1.18-.34-.78-.13-1.59.47-1.86.22-2.1,1.96-3.71,4.07-3.71s3.85,1.61,4.07,3.71c.6.27.81,1.08.47,1.86-.2.45-.64.98-1.12,1.17-.65,1.28-1.87,2.59-3.43,2.59ZM6.56.76c-1.8,0-3.26,1.44-3.33,3.27v.34s-.36.02-.36.02c-.04,0-.06,0-.07.01-.18.08-.26.47-.09.86.17.4.55.75.77.8l.18.04.08.17c.53,1.11,1.55,2.3,2.81,2.3s2.28-1.19,2.81-2.3l.08-.17.18-.04c.22-.05.6-.4.77-.8.17-.4.1-.78-.09-.86-.01,0-.03-.01-.07-.01l-.34-.02v-.34c-.08-1.83-1.54-3.27-3.34-3.27Z"/><path class="cls-1" d="M9.56,9.52l-1.53,5.69h-2.94l-1.53-5.69c-2.04.52-3.56,2.37-3.56,4.56v3.73h13.12v-3.73c0-2.19-1.52-4.05-3.56-4.56Z"/><path class="cls-1" d="M6.56,10.22h0c.27,0,.49.2.51.47l.47,6.15c-.11.08-.22.13-.34.13h-1.27c-.12,0-.23-.05-.34-.13l.47-6.15c.02-.26.24-.47.51-.47Z"/><path class="cls-1" d="M9.98,2.69c-.56-1.36-1.88-2.31-3.42-2.31s-2.86.95-3.42,2.31h6.84Z"/><path class="cls-1" d="M10.21,2.84H2.91l.09-.21C3.61,1.17,5,.23,6.56.23s2.95.94,3.56,2.4l.09.21ZM3.38,2.54h6.37c-.6-1.23-1.83-2.01-3.18-2.01s-2.58.78-3.18,2.01Z"/></g></svg>