<?xml version="1.0" encoding="UTF-8"?><svg id="_圖層_2" xmlns="http://www.w3.org/2000/svg" viewBox="0 0 18.1 16.9"><defs><style>.cls-1{fill:#fff;}</style></defs><g id="_圖層_2-2"><path class="cls-1" d="M12.03,3.55c-.21,0-.37-.17-.37-.37v-1.44c0-.55-.45-1-1-1h-3.23c-.55,0-1,.45-1,1v1.44c0,.21-.17.37-.37.37s-.37-.17-.37-.37v-1.44c0-.96.78-1.74,1.74-1.74h3.23c.96,0,1.74.78,1.74,1.74v1.44c0,.21-.17.37-.37.37Z"/><path class="cls-1" d="M2.91,8.96c.14.08.29.12.45.12h11.38c.16,0,.32-.04.45-.12l2.91-1.72v-1.89c0-.64-.52-1.16-1.16-1.16H1.16c-.64,0-1.16.52-1.16,1.16v1.89l2.91,1.72Z"/><path class="cls-1" d="M15.57,9.6c-.25.15-.54.23-.83.23h-3.39v1.31c0,.8-.65,1.45-1.45,1.45h-1.7c-.8,0-1.45-.65-1.45-1.45v-1.31h-3.39c-.29,0-.58-.08-.83-.23l-2.53-1.5v7.63c0,.64.52,1.16,1.16,1.16h15.77c.64,0,1.16-.52,1.16-1.16v-7.63l-2.53,1.5Z"/><path class="cls-1" d="M9.87,11.81h-1.65c-.34,0-.62-.28-.62-.62h0c0-.34.28-.62.62-.62h1.65c.34,0,.62.28.62.62h0c0,.34-.28.62-.62.62Z"/></g></svg>