<?xml version="1.0" encoding="UTF-8"?><svg id="_圖層_2" xmlns="http://www.w3.org/2000/svg" viewBox="0 0 23.36 16.09"><defs><style>.cls-1{fill:#fff;}</style></defs><g id="_圖層_2-2"><path class="cls-1" d="M20.14,13.29H3.23c-.56,0-1.01-.45-1.01-1.01V1.01c0-.56.45-1.01,1.01-1.01h16.91c.56,0,1.01.45,1.01,1.01v11.27c0,.56-.45,1.01-1.01,1.01ZM3.23.87c-.08,0-.14.06-.14.14v11.27c0,.08.06.14.14.14h16.91c.08,0,.14-.06.14-.14V1.01c0-.08-.06-.14-.14-.14H3.23Z"/><rect class="cls-1" y="14.25" width="23.36" height="1.84" rx=".64" ry=".64"/><path class="cls-1" d="M20.14.44H3.23c-.32,0-.58.26-.58.58v1.42h18.06v-1.42c0-.32-.26-.58-.58-.58ZM11.68,1.92c-.27,0-.48-.22-.48-.48s.22-.48.48-.48.48.22.48.48-.22.48-.48.48Z"/><path class="cls-1" d="M16.63,9.14c-.12,0-.23-.06-.3-.17l-.81-1.35c-.1-.17-.05-.38.12-.48.17-.1.38-.05.48.12l.81,1.35c.1.17.05.38-.12.48-.06.03-.12.05-.18.05Z"/><path class="cls-1" d="M14.98,8.41l-.56-2.92c-.04-.2.19-.33.34-.21l2.3,1.87c.16.13.06.39-.14.38l-.93-.03c-.08,0-.16.04-.2.12l-.41.84c-.09.18-.36.15-.4-.05Z"/></g></svg>