<?xml version="1.0" encoding="UTF-8"?><svg id="_圖層_2" xmlns="http://www.w3.org/2000/svg" viewBox="0 0 18.25 19.6"><defs><style>.cls-1{fill:#fff;}</style></defs><g id="_圖層_2-2"><path class="cls-1" d="M10.62,1.96c0-1.08.88-1.96,1.96-1.96s1.96.88,1.96,1.96-.88,1.96-1.96,1.96-1.96-.88-1.96-1.96ZM18.05,7.69c-.32-.39-.9-.46-1.29-.14l-2.37,1.08-1.92-3.94-1.99-1.17-4.36-.09c-.46-.02-.9.2-1.17.57l-1.67,2.3c-.27.37-.18.88.19,1.15h.01c.37.28.89.19,1.15-.18l1.51-2.13,2.45.42-3.69,7.44-3.58-1.62c-.39-.2-.86-.06-1.08.32l-.12.21c-.23.39-.1.89.29,1.12l4.16,2.44c.47.27,1.06.15,1.38-.29.91-1.27,2.63-3.67,2.7-3.64l3.2,2.15.02,4.39s0,1.18.54,1.42c.14.07.29.1.44.1.41,0,.8-.24.98-.63l.42-5.36s0-1.17-.52-1.42l-3.47-2.68,1.33-1.94,1.83,2.85c.32.37.88.42,1.27.11l3.23-1.54c.39-.32.46-.9.14-1.29Z"/></g></svg>