<svg width="20" height="20" viewBox="0 0 20 20" fill="none" xmlns="http://www.w3.org/2000/svg">
<g clip-path="url(#clip0_12_666)">
<path d="M10 20C15.5228 20 20 15.5228 20 10C20 4.47715 15.5228 0 10 0C4.47715 0 0 4.47715 0 10C0 15.5228 4.47715 20 10 20Z" fill="#7E7E7E"/>
<path d="M7.63401 16H12.371C12.739 16 13.039 15.885 13.27 15.655C13.5 15.425 13.624 15.116 13.642 14.728L13.998 6.894H14.618C14.725 6.894 14.815 6.854 14.888 6.772C14.9613 6.69417 15.0015 6.5909 15 6.484C15.001 6.43115 14.9914 6.37863 14.9718 6.32953C14.9522 6.28043 14.9231 6.23571 14.886 6.198C14.8521 6.16065 14.8107 6.13085 14.7646 6.11052C14.7184 6.09019 14.6685 6.07979 14.618 6.08H5.38801C5.33671 6.07986 5.28595 6.09057 5.23908 6.11142C5.1922 6.13227 5.15026 6.1628 5.11601 6.201C5.07888 6.23813 5.0495 6.28226 5.02959 6.33085C5.00967 6.37943 4.99962 6.43149 5.00001 6.484C5.00001 6.595 5.03901 6.692 5.11601 6.772C5.19401 6.853 5.28401 6.894 5.38701 6.894H6.00701L6.36401 14.734C6.38101 15.122 6.50401 15.43 6.73301 15.658C6.96201 15.886 7.26301 16 7.63401 16ZM7.70701 15.186C7.63752 15.1876 7.56847 15.1746 7.50436 15.1477C7.44026 15.1208 7.38255 15.0807 7.33501 15.03C7.23429 14.9237 7.17718 14.7834 7.17501 14.637L6.81301 6.894H13.166L12.826 14.637C12.825 14.7845 12.7678 14.9262 12.666 15.033C12.6171 15.0834 12.5582 15.123 12.4931 15.1494C12.4281 15.1757 12.3582 15.1882 12.288 15.186H7.70701ZM8.47101 14.265C8.56701 14.265 8.64501 14.235 8.70401 14.176C8.73321 14.1457 8.75597 14.1098 8.77093 14.0704C8.78588 14.031 8.79271 13.9891 8.79101 13.947L8.63101 8.181C8.63275 8.13912 8.62563 8.09734 8.61012 8.0584C8.59461 8.01945 8.57106 7.98422 8.54101 7.955C8.51022 7.92623 8.47406 7.90382 8.43459 7.88906C8.39512 7.8743 8.35312 7.86749 8.31101 7.869C8.26786 7.86721 8.2248 7.87417 8.18441 7.88947C8.14402 7.90476 8.10715 7.92808 8.07601 7.958C8.04609 7.98773 8.023 8.02361 8.00832 8.06315C7.99364 8.10269 7.98774 8.14495 7.99101 8.187L8.14601 13.947C8.14507 14.0336 8.17851 14.117 8.23901 14.179C8.26994 14.2082 8.30642 14.2308 8.34627 14.2456C8.38613 14.2603 8.42855 14.267 8.47101 14.265ZM10 14.265C10.1 14.265 10.18 14.235 10.243 14.176C10.2737 14.1465 10.2979 14.1109 10.3139 14.0714C10.3299 14.032 10.3375 13.9896 10.336 13.947V8.187C10.3376 8.14427 10.3302 8.10169 10.3141 8.06205C10.2981 8.0224 10.2739 7.9866 10.243 7.957C10.2102 7.92724 10.1719 7.90424 10.1302 7.88931C10.0885 7.87439 10.0442 7.86782 10 7.87C9.95643 7.86837 9.91295 7.8754 9.8721 7.89067C9.83125 7.90595 9.79383 7.92917 9.76201 7.959C9.73129 7.98849 9.70712 8.02413 9.6911 8.06359C9.67508 8.10304 9.66755 8.14544 9.66901 8.188V13.948C9.66901 14.041 9.70001 14.118 9.76201 14.177C9.79383 14.2068 9.83125 14.23 9.8721 14.2453C9.91295 14.2606 9.95643 14.2666 10 14.265ZM11.534 14.265C11.5757 14.2667 11.6173 14.2599 11.6563 14.2451C11.6953 14.2304 11.7309 14.2079 11.761 14.179C11.8215 14.117 11.855 14.0336 11.854 13.947L12.009 8.187C12.0125 8.14504 12.007 8.10281 11.9928 8.06315C11.9787 8.02349 11.9563 7.9873 11.927 7.957C11.8955 7.92683 11.8581 7.90345 11.8171 7.88832C11.7762 7.87318 11.7326 7.86661 11.689 7.869C11.6473 7.86733 11.6057 7.87408 11.5667 7.88886C11.5277 7.90363 11.4921 7.92613 11.462 7.955C11.4015 8.01697 11.3681 8.1004 11.369 8.187L11.214 13.947C11.2107 13.9888 11.2163 14.0308 11.2304 14.0703C11.2445 14.1098 11.2669 14.1458 11.296 14.176C11.355 14.236 11.434 14.265 11.534 14.265ZM7.73201 6.463H8.55401V5.309C8.55401 5.159 8.60101 5.036 8.69601 4.943C8.74573 4.8957 8.80448 4.85893 8.86874 4.83487C8.933 4.81082 9.00146 4.79998 9.07001 4.803H10.92C10.9886 4.79998 11.057 4.81082 11.1213 4.83487C11.1855 4.85893 11.2443 4.8957 11.294 4.943C11.3415 4.99099 11.3787 5.04826 11.4031 5.11122C11.4275 5.17419 11.4387 5.24151 11.436 5.309V6.463H12.257V5.256C12.257 4.868 12.143 4.561 11.914 4.336C11.684 4.112 11.372 4 10.976 4H9.01301C8.61701 4 8.30501 4.112 8.07601 4.337C7.84601 4.561 7.73201 4.867 7.73201 5.256V6.463Z" fill="white"/>
</g>
<defs>
<clipPath id="clip0_12_666">
<rect width="20" height="20" fill="white"/>
</clipPath>
</defs>
</svg>
