<svg width="16" height="15" viewBox="0 0 16 15" xmlns="http://www.w3.org/2000/svg">
    <path d="M1.125 2.247h13.768c.315 0 .578-.11.79-.329.211-.219.317-.487.317-.804 0-.316-.106-.581-.317-.794a1.067 1.067 0 0 0-.79-.32H1.125A1.09 1.09 0 0 0 0 1.114c0 .317.106.585.317.804.212.22.481.33.808.33zm0 6.377h13.768c.315 0 .578-.11.79-.33.211-.218.317-.486.317-.803 0-.317-.106-.582-.317-.795a1.067 1.067 0 0 0-.79-.32H1.125A1.09 1.09 0 0 0 0 7.491c0 .317.106.585.317.804.212.219.481.329.808.329zm0 6.376h6.512a1.09 1.09 0 0 0 1.125-1.096c0-.33-.106-.603-.318-.822a1.074 1.074 0 0 0-.807-.33H1.125c-.327 0-.596.11-.808.33-.211.219-.317.493-.317.822A1.09 1.09 0 0 0 1.125 15z" fill="#EB5C20" fill-rule="nonzero"/>
</svg>
