<svg width="14" height="8" viewBox="0 0 14 8" fill="none" xmlns="http://www.w3.org/2000/svg">
<path d="M7.00008 5.58602L12.2931 0.29302C12.4817 0.110862 12.7343 0.0100677 12.9965 0.0123461C13.2587 0.0146245 13.5095 0.119793 13.6949 0.305202C13.8803 0.49061 13.9855 0.741422 13.9878 1.00362C13.99 1.26582 13.8892 1.51842 13.7071 1.70702L7.70708 7.70702C7.51955 7.89449 7.26525 7.99981 7.00008 7.99981C6.73492 7.99981 6.48061 7.89449 6.29308 7.70702L0.293081 1.70702C0.197571 1.61477 0.121389 1.50443 0.0689798 1.38242C0.0165708 1.26042 -0.0110155 1.1292 -0.0121693 0.996421C-0.0133231 0.863642 0.0119786 0.731962 0.0622595 0.609066C0.11254 0.48617 0.186794 0.374518 0.280686 0.280625C0.374579 0.186732 0.486231 0.112479 0.609127 0.0621985C0.732023 0.0119176 0.863703 -0.0133841 0.996482 -0.0122303C1.12926 -0.0110765 1.26048 0.0165097 1.38249 0.0689187C1.50449 0.121328 1.61483 0.19751 1.70708 0.29302L7.00008 5.58602Z" fill="#999999"/>
</svg>
