<?xml version="1.0" encoding="UTF-8"?><svg id="_圖層_2" xmlns="http://www.w3.org/2000/svg" xmlns:xlink="http://www.w3.org/1999/xlink" viewBox="0 0 156.83 140.7"><defs><style>.cls-1{fill:none;}.cls-2{fill:#0eabb8;}.cls-3{clip-path:url(#clippath);}</style><clipPath id="clippath"><rect class="cls-1" width="156.83" height="140.7"/></clipPath></defs><g id="_圖層_1-2"><g class="cls-3"><path class="cls-2" d="M110.21,155.46l-5.94-24.11c-1.44-5.84-1.45-12.02-.02-17.87l4.94-20.27c.85-3.5.73-7.13-.34-10.49-1.28-3.99-3.71-9.7-8.02-14.24-2.75-3.05-6.16-3.32-7.92-3.21-1.14-2.22-4.27-7.03-10.24-7.81-.9-1.3-2.94-3.76-5.94-4.59-1.55-.43-3.11-.38-4.67.14-1.44-7.03-3.21-16.48-5.33-28.77-.6-3.47-3.81-5.92-7.32-5.56-1.81.18-3.44,1.06-4.58,2.48-1.14,1.42-1.65,3.2-1.44,5.01.84,7.21,2.73,23.32,4.14,34.93-5.93,1.25-9.01,11.27-10.87,17.33-.13.42-.25.82-.37,1.18l-3.56,11.37c-.98,3.14-.98,6.45,0,9.56,4.12,13.07,11.38,22.41,15.34,26.82,1.29,1.44,2.24,3.21,2.73,5.12l6.12,23.84c.2.8.92,1.32,1.7,1.32.14,0,.29-.02.44-.06.94-.24,1.51-1.2,1.27-2.14l-6.12-23.84c-.63-2.46-1.85-4.74-3.52-6.6-3.77-4.2-10.68-13.09-14.6-25.52-.76-2.42-.76-4.99,0-7.45l3.56-11.37c.12-.37.24-.77.37-1.2,1.38-4.49,4.2-13.64,7.94-14.84.11.87.21,1.7.31,2.48,1.69,13.66-3.42,20.52-3.47,20.58-.59.77-.46,1.87.31,2.46.32.25.7.37,1.08.37.52,0,1.04-.23,1.39-.68.25-.32,6.07-7.96,4.18-23.18-1.39-11.2-3.87-32.34-4.87-40.91-.1-.86.14-1.71.69-2.39.55-.68,1.32-1.1,2.19-1.19,1.67-.17,3.21,1,3.5,2.66,3.38,19.66,7.9,43.78,10.22,47.06.56.79,1.66.98,2.45.42.79-.56.98-1.66.42-2.45-.58-.82-1.77-4.92-3.57-13.37,1.03-.43,2.01-.51,2.98-.24,2.54.7,4.21,3.5,4.32,3.71l2.98,5.95c.31.62.93.97,1.58.97.26,0,.53-.06.79-.19.87-.44,1.22-1.49.79-2.36l-1.27-2.53c2.91,1.48,4.46,4.29,4.97,5.38,0,0,0,0,0,0l.38.92.11.3h0s2.16,5.28,2.16,5.28c.28.68.94,1.09,1.63,1.09.22,0,.45-.04.67-.13.9-.37,1.33-1.4.96-2.3l-1.45-3.53c1.13.15,2.57.65,3.81,2.03l.04.04c3.86,4.06,6.07,9.25,7.24,12.9.88,2.75.98,5.71.28,8.58l-4.94,20.27c-1.56,6.4-1.55,13.15.02,19.55l5.94,24.11c.2.8.92,1.34,1.71,1.34.14,0,.28-.02.42-.05.94-.23,1.52-1.19,1.29-2.13Z"/></g><path class="cls-2" d="M98.3,43c1.23.3,2.7.47,2.53,2.21-.19,1.89-1.21,2.18-2.92,1.99-3.79-.41-10.65-1.75-14.34-2.74-3.03-.82-3.8-2.85-.75-4.33,5.04,1.15,10.48,1.65,15.48,2.86Z"/><path class="cls-2" d="M78.06,31.14l15.57-4.62c2.56.33,3.06,2.89.59,4.08-1.44.69-13.41,4.34-14.73,4.41-2.55.13-3.45-2.43-1.44-3.86Z"/><path class="cls-2" d="M85.18,11.02c1.68.34,1.81,2.05,1.02,3.36-.91,1.5-8.2,9.55-9.65,10.79-2.14,1.83-4.86-.48-3.13-2.79l10.05-11.02c.43-.35,1.2-.44,1.71-.33Z"/></g></svg>