<?xml version="1.0" encoding="UTF-8"?><svg id="_圖層_2" xmlns="http://www.w3.org/2000/svg" viewBox="0 0 136.45 120.35"><defs><style>.cls-1{fill:#de7f27;}.cls-2{fill:#e78324;}</style></defs><g id="_圖層_1-2"><path class="cls-1" d="M133.55,24.02c1.13-.05,2.43-.28,2.72,1.25.32,1.66-.48,2.17-1.99,2.44-3.34.6-9.53,1.19-12.95,1.27-2.8.07-3.96-1.48-1.73-3.51,4.6-.28,9.37-1.23,13.94-1.45Z"/><path class="cls-1" d="M113.27,18.99l12.14-7.87c2.27-.36,3.34,1.69,1.53,3.34-1.05.96-10.36,7.08-11.48,7.47-2.15.75-3.56-1.21-2.2-2.94Z"/><path class="cls-1" d="M114.29,0c1.52-.13,2.06,1.29,1.72,2.61-.4,1.51-4.6,10.22-5.53,11.65-1.37,2.1-4.27.81-3.37-1.6l5.81-11.95c.28-.41.91-.68,1.38-.71Z"/><path class="cls-2" d="M2.61,23.19c-1.05-.05-2.27-.26-2.55,1.17-.3,1.56.45,2.03,1.86,2.28,3.13.56,8.93,1.11,12.12,1.19,2.62.06,3.71-1.38,1.62-3.28-4.31-.27-8.77-1.15-13.06-1.36Z"/><path class="cls-2" d="M21.6,18.48l-11.37-7.37c-2.12-.34-3.13,1.59-1.44,3.12.99.89,9.7,6.63,10.74,7,2.01.71,3.33-1.13,2.06-2.75Z"/><path class="cls-2" d="M20.64.71c-1.42-.12-1.93,1.21-1.61,2.45.37,1.41,4.3,9.57,5.18,10.91,1.28,1.96,4,.76,3.16-1.5L21.93,1.38c-.26-.38-.85-.63-1.29-.67Z"/><path class="cls-1" d="M112.33,87.73c.44-2.27,2.02-6.4,2.14-8.46.17-2.87-3.1-4.21-4.82-2.08-.96,1.19-2.63,9.97-3.02,12.05-1.91,10.24-2.72,20.69-2.53,31.12h5.4c-.18-10.96.77-22,2.83-32.62Z"/><path class="cls-1" d="M14.41,120.35c0-.56,0-1.12,0-1.68h0c.41-.26.25-.94.25-1.36.09-7.2,0-14.42,0-21.62,0-15.48-.27-31.06.32-46.49.41-.9.47-2.1,1.41-2.67-.08,7.95,3.95,15.62,10.79,19.71,13.29,7.95,30.21.22,33.31-14.77,1.37-6.62-.72-13.01-4.55-18.37,1.62-1.65,3.04-3.59,3.87-5.78.25-.66,1.05-3.11,1.05-3.65v-7.78h23.71v7.78c0,3.63,3.78,8.84,6.74,10.8,3.07,2.04,11.52,3.96,15.25,4.14.29.36.74.37,1.14.46,5.09,1.14,10.75,1.95,15.71,3.31,3.65,1,6.45,3.84,7.24,7.58l-.02,70.36h5.82c-.38-23.31-.24-46.65-.25-69.98-.72-6.39-5.19-11.39-11.32-13.13-5.16-1.47-11.27-2.36-16.6-3.53-3.9-.86-9.29-1.56-12.91-2.77-.4-.13-2.76-2.32-3.14-2.79-4-4.9-1.23-10.3-2.28-15.5-.18-.89-.92-1.61-1.68-2.02l-30.73-.12c-1.02.16-1.6,1.08-2.05,1.9-.5,3.96.7,9-.61,12.73-.36,1.03-2.09,4.46-3.41,4.03-.91-.29-2.85-1.81-4.11-2.34-10.33-4.36-21.29-.5-27.46,8.53-.42.61-.87,2-1.27,2.44-.42.46-2.64,1.41-3.45,1.99-2.59,1.85-5.95,6.91-5.95,10.11v70.47h5.19ZM45.62,32.01c10.65,4.75,13.07,18.68,4.99,27.03-8.92,9.22-24.91,4.91-28.17-7.31-3.69-13.83,10.08-25.58,23.19-19.73ZM14.4,96.14c-.05.3.01.66,0,.92-.03,2.7-.03,5.4-.02,8.11,0-2.7-.01-5.41.02-8.11,0-.26-.06-.62,0-.92Z"/><path class="cls-1" d="M75.23,78.73c-.51-1.32-1.66-2.02-3.08-1.74-1.16.22-2.06,1.37-2.17,2.54.08,13.6-.03,27.22-.02,40.83h5.46c.04-13.89.1-27.78-.19-41.63Z"/><path class="cls-1" d="M41.34,120.35c.05-3.39.04-6.78,0-10.2,0-.42.16-1.1-.25-1.36.11-7.19-2.12-23.64-4.62-30.33-.58-1.56-1.54-2.59-3.35-2.22-1.87.38-2.05,1.87-1.88,3.5.32,3.08,1.73,7.24,2.33,10.52,1.44,7.87,2.39,16.25,2.59,24.21.08-.21.2-.38.34-.52.43-.41,1.04-.55,1.31-.78.05-.05.1-.11.13-.2.08-.16.14-.38.24-.58.05-.1.11-.19.19-.27.59-.6,1.24-1.11,1.81-1.7.19-.2.37-.41.54-.64h0c-.17.23-.35.44-.54.64-.57.6-1.22,1.1-1.81,1.7-.08.08-.14.17-.19.27-.1.2-.16.42-.24.58-.04.08-.08.15-.13.2-.27.23-.89.37-1.31.78-.14.14-.26.31-.34.52.05,1.92.03,3.89-.01,5.88h5.21ZM41.09,110.77h0s-.24-.66-.24-.66l.24.66Z"/><path class="cls-1" d="M42.14,56.62c11-3.95,6.78-20.97-4.82-19.39-14.2,1.93-9.25,24.44,4.82,19.39ZM37.81,42.66c5.34-.87,7.63,6.61,2.84,8.77-6.61,2.99-9.47-7.7-2.84-8.77Z"/></g></svg>