<?xml version="1.0" encoding="UTF-8"?><svg id="_圖層_2" xmlns="http://www.w3.org/2000/svg" viewBox="0 0 140.25 112.81"><defs><style>.cls-1{fill:#de7f27;}.cls-2{fill:#fff;}</style></defs><g id="_圖層_1-2"><path class="cls-2" d="M17.22,7.89c-3.48-.43-6.63,2.14-7.05,5.75l-2.8,24.27c-.42,3.61,2.06,6.88,5.54,7.32h0c3.48.43,6.63-2.14,7.05-5.75l2.8-24.27c.42-3.61-2.06-6.88-5.54-7.32h0Z"/><path class="cls-1" d="M10.54,46.15c-3.09-1.4-5.08-4.78-4.66-8.43l2.8-24.27c.51-4.45,4.43-7.65,8.72-7.11h0c2.08.26,3.94,1.34,5.23,3.05,1.29,1.71,1.87,3.84,1.62,6l-2.8,24.27c-.25,2.16-1.29,4.09-2.94,5.43-1.65,1.34-3.7,1.94-5.78,1.68-.78-.1-1.51-.31-2.19-.62ZM17.04,9.43c-2.65-.33-5.06,1.64-5.38,4.39l-2.8,24.27c-.32,2.75,1.58,5.26,4.23,5.59,1.28.16,2.55-.21,3.57-1.04,1.02-.83,1.66-2.02,1.81-3.35l2.8-24.27c.15-1.33-.2-2.65-1-3.7-.8-1.06-1.94-1.72-3.23-1.88h0Z"/><path class="cls-2" d="M126.54,75.85c-3.16-.72-40.79-14.16-55.31-22.82-.17-.26-.35-.53-.54-.8-4.8-6.76-12.99-9.96-20.98-8.67l-4.34.7-14.79-6.04c-4.02-1.89-7.08.22-8.09,2.54-.29.67-.48,1.36-.57,2.03h0s-7.24-8.45-7.24-8.45l-1.07-27.06c-.05-2.89-2.5-5.8-6.41-5.72-3.68.07-5.73,2.78-5.69,5.88l.56,31.33,18.28,25.49c4.01,5.59,7.95,10.69,14.41,13.61l11.75,5.31c3.6,1.63,7.36,2.81,11.22,3.54l.22.04c7.13,1.34,13.91,4.14,20.13,8,1.37.85,31.92,15.31,33.08,16.21,5.06,3.91,21.48-33.72,15.39-35.12Z"/><path class="cls-1" d="M45.91,84.61l-11.75-5.31c-6.7-3.03-10.76-8.18-15.01-14.11L.86,39.7c-.19-.26-.29-.58-.3-.9L0,7.46C-.05,3.22,2.96.08,7.16,0c4.88-.09,7.87,3.61,7.94,7.25l1.04,26.47,5.16,6.01c.75-1.46,2.02-2.64,3.55-3.27,1.36-.57,3.6-1,6.35.33l14.35,5.86,3.94-.64c8.75-1.41,17.34,2.15,22.42,9.28.13.18.26.37.38.55,11.78,6.96,48.46,21.48,52.55,22.12.83.13,1.48.23,2.04.36.74.17,2.05.79,2.41,3.05,1.16,7.24-9.22,30.95-15.21,34.75-1.88,1.19-3.19.57-3.81.09-1.07-.83-31.62-15.3-32.95-16.12-6.32-3.91-12.92-6.54-19.63-7.8l-.21-.04c-3.97-.74-7.86-1.97-11.55-3.64ZM3.55,38.24l18,25.09c3.99,5.56,7.78,10.39,13.8,13.11l11.75,5.31c3.48,1.57,7.15,2.73,10.89,3.43l.21.04c7.06,1.33,14.01,4.09,20.63,8.19,1.46.91,32.09,15.43,33.21,16.3.97,0,4.8-4.17,9.34-14.34,4.84-10.85,5.49-17.21,4.76-18.06-.38-.06-.99-.15-1.76-.27-4.32-.67-41.46-15.26-53.9-22.67-.2-.12-.37-.29-.5-.49-.16-.24-.32-.49-.5-.74-4.41-6.2-11.9-9.29-19.54-8.06l-4.34.7c-.26.04-.53.01-.78-.09l-14.79-6.04c-1.52-.68-2.89-.8-4.07-.31-.93.39-1.72,1.15-2.11,2.05-.21.49-.36.97-.44,1.44,0,.12-.02.23-.05.35-.2,1.92.78,3.53,2.8,4.48l13.07,6.14,14.46,6.54c.76.34,1.11,1.26.78,2.05s-1.21,1.15-1.97.81l-14.48-6.54-13.09-6.14c-3.09-1.45-4.73-4.15-4.58-7.19l-6.8-7.93c-.23-.27-.36-.61-.38-.97l-1.07-27.06c-.04-2.14-1.87-4.29-4.89-4.23-2.95.06-4.24,2.2-4.22,4.3l.55,30.83Z"/><path class="cls-1" d="M136.29,53.18c1.11-.6,2.33-1.45,3.36-.04,1.13,1.53.56,2.43-.84,3.43-3.1,2.23-9.08,5.82-12.5,7.55-2.8,1.42-4.73.42-3.45-2.72,4.52-2.51,8.9-5.78,13.42-8.22Z"/><path class="cls-1" d="M113.31,57.9l8.49-13.85c2.13-1.46,4.21.1,3.17,2.64-.6,1.48-7.07,12.19-8.01,13.12-1.81,1.8-4.19.5-3.65-1.91Z"/><path class="cls-1" d="M105.16,38.17c1.48-.86,2.71.31,3,1.82.33,1.72.29,12.58.03,14.48-.37,2.79-3.94,2.89-4.19.01l.11-14.92c.09-.55.6-1.12,1.05-1.39Z"/></g></svg>