<?xml version="1.0" encoding="UTF-8"?><svg id="_圖層_2" xmlns="http://www.w3.org/2000/svg" viewBox="0 0 88.79 145.81"><defs><style>.cls-1{fill:#0eabb8;}</style></defs><g id="_圖層_1-2"><path class="cls-1" d="M85.66,26.97c1.26-.06,2.73-.31,3.05,1.41.36,1.87-.54,2.43-2.23,2.74-3.75.68-10.7,1.33-14.53,1.42-3.14.07-4.45-1.66-1.94-3.94,5.16-.32,10.52-1.38,15.66-1.63Z"/><path class="cls-1" d="M62.89,21.32l13.63-8.83c2.55-.4,3.75,1.9,1.72,3.75-1.18,1.07-11.63,7.95-12.88,8.39-2.41.85-3.99-1.36-2.47-3.3Z"/><path class="cls-1" d="M64.04,0c1.7-.14,2.31,1.45,1.93,2.93-.45,1.7-5.16,11.48-6.21,13.08-1.54,2.36-4.8.91-3.79-1.8L62.5.81c.32-.46,1.02-.76,1.54-.8Z"/><path class="cls-1" d="M15.68,36.5c1.05-3.54,4-6.77,7.77-7.36.87-.14,2.11.1,2.76-.12.43-.15,1.4-1.91,1.91-2.41,2.42-2.39,6.27-3.35,9.53-2.29,10.22-12.73,23.92.84,19.3,14.12-.3.87-1.48,2.82-1.44,3.43.05.8,1.38,2.73,1.74,3.76,3.51,10.2-1.2,18.82-3.38,28.34-2.27,9.89-2.93,21.81-1.49,31.86,1.35,9.38,3.66,16.9.81,26.53-4.18,14.11-21.86,18.65-30.94,6.19-7.39-10.15-7.26-23.09-8.86-34.94-1.08-8-3.41-15.82-4.76-23.77-.74-4.36-1.25-8.7-1.58-13.12-2.34-1.3-4.24-2.37-5.58-4.79-2.72-4.93-1.54-10.48,2.6-14.13.52-.46,1.31-.53,1.72-1.17.5-.78.53-2.43.89-3.44,1.37-3.95,4.9-6.35,9.01-6.69ZM39.66,35.69h5.04c.6,0,3.16.76,3.88,1.01,1.33.47,2.46,1.33,3.75,1.87,2.22-4.48,1.52-12.22-3.59-14.41-6.45-2.76-10.7,6.18-9.08,11.53ZM35.34,35.98c-.38-1.42-.37-2.99-.3-4.47.06-1.24,1.27-3.32-.41-3.32-4.23,0-6.05,5.51-4.77,8.95l5.47-1.16ZM24.96,33.38c-4.12.08-6.15,4.73-4.9,8.36l5.64-3.17-.74-5.19ZM49.14,113.18l-1.7-11.94c-.61-9.52.02-19.1,2.15-28.39,1.87-8.14,5.76-14.93,4.1-23.69-2.96-15.7-26.58-8.31-34.79-.95-13.04,11.69-5.08,33.53-2.39,48.22,1.4,7.68,1.67,15.31,3.06,22.87,1.95,10.62,7.55,26.62,21.52,20.98-9.25-9.1-4.91-24.84,8.04-27.11ZM15.43,41.19c-4.48.02-6.22,5.62-4.3,9.2l5.2-5.67-.91-3.53ZM7.38,61.91l1.67-7.02-2.68-3.35c-2.81,3.12-2.63,8.02,1,10.37ZM49.74,117.53c-9.69,1.93-12.59,14.06-4.75,20.17,5.13-5,5.51-13.44,4.75-20.17Z"/><path class="cls-1" d="M28.93,50.18c11.99-1.46,21.2,10.24,16.63,21.53-4.31,10.65-18.88,12.95-26.35,4.18-7.9-9.28-2.39-24.23,9.73-25.7ZM29.79,54.5c-14.49,1.58-12.23,24.09,2.77,22.36,14.17-1.63,12.13-23.98-2.77-22.36Z"/><path class="cls-1" d="M30.08,58.24c9.82-1.32,11.69,13.86,1.91,14.88-9.96,1.03-11.31-13.62-1.91-14.88ZM31.16,62.64c-3.51,0-4.18,4.72-1.17,5.92,4.41,1.77,6.01-5.92,1.17-5.92Z"/></g></svg>