<?xml version="1.0" encoding="UTF-8"?><svg id="_圖層_2" xmlns="http://www.w3.org/2000/svg" viewBox="0 0 103.42 127.37"><defs><style>.cls-1{fill:#de7f27;}</style></defs><g id="_圖層_1-2"><path class="cls-1" d="M66.98.05c1.28.62.59,3.88.73,5.25.64,6.35,3.01,13.4,6.19,18.97,1.53,2.68,4.12,5.25,5.46,7.91,3.54,7.03,2.57,13.98-1.19,20.44-.14.23-.62.18-.6.35.49,1.75,1.66,4.09,1.86,5.84.23,2.06.18,6.83-.05,8.92-.15,1.36-1.58,4.65-1.51,5.55.07.97,1.25,2.04,1.58,2.76,2.74,6.12,2.93,12.33-.08,18.38-1.32,2.66-3.91,5.2-5.47,7.9-3.27,5.67-5.49,12.51-6.18,18.98-.37,3.51,1.37,5.43-3.22,5.7-7.4.45-18.51.52-25.87,0-4.32-.31-2.58-2.39-2.92-5.7-.65-6.39-3.01-13.36-6.19-18.97-2.58-4.57-6.39-7.61-7.33-13.05-.82-4.76-.06-9.44,1.92-13.58.22-.47,1.35-1.25,1.43-2.42.09-1.27-1.38-4.36-1.54-6.13-.18-2.01-.26-7.04-.01-8.96.07-.56.56-.39.63-.66.34-1.36.56-3.09.88-4.49-.13-.76-1.15-1.72-1.38-2.17-2.95-5.82-2.84-14.01.54-19.95.49-.86,2-2.26,2.53-3.09,4.6-7.17,7.53-13.89,8.51-22.55.2-1.79-.45-3.68.69-5.31l30.58.05ZM63.36,3.66l-23.38.14c-.71,1.82-.34,3.96-.65,5.75-.78,4.5-2.62,9.57-4.58,13.57-3.23,6.58-9.91,11.95-8.87,20.02.85,6.58,6.98,13.27,13.67,14.03,2.63.3,5.46-.3,7.99-.33,10-.11,20.25,2.92,26.93-6.06,1.87-2.52,3.4-7.35,3.08-10.69-.59-6.3-4.62-9.1-7.34-13.95-2.3-4.1-4.5-9.51-5.5-14.13-.61-2.8-.67-5.58-1.36-8.34ZM30.03,57.3c-.32-.21-.64-.5-.94-.75-2.05,4.24-1.31,9.03-.46,13.53,1.56-.7,2.87-2.02,4.44-2.78,7.14-3.47,16.19-1.12,24.33-1.51,3.65-.18,5.14-.94,9.14.07,3.18.8,5.56,2.56,8.23,4.23.83-4.53,1.69-9.25-.46-13.53-2.1,1.82-5.04,3.53-7.77,4.22-4.06,1.04-5.71.23-9.45.06-5.18-.23-9.78.34-14.79.62-4.72.27-8.69-1.81-12.29-4.16ZM66.98,70.2c-4.09-1.48-8.22-.44-12.34-.41-7.74.05-16.18-2.15-22.6,2.93-8.45,6.68-7.04,15.52-1.86,23.59,3.71,5.78,6.86,10.65,8.53,17.69l1.35,8.96,23.38-.14c.77-7.86,2.9-15.43,6.77-22.33,2.55-4.54,6.76-8.03,7.35-13.64.73-7.03-4.27-14.37-10.57-16.65Z"/><path class="cls-1" d="M21.49,57.08c-.27.23-1.86.41-2.32.19-4.95-2.98-11.68-5.05-16.42-8.15-2.27-1.48-.15-4.4,2.27-3.57l16.01,7.99c1.3.56,1.32,2.83.46,3.54Z"/><path class="cls-1" d="M100.83,77.57c1.62,1.35.5,4.08-2.13,3.52-2.01-.43-6.47-3.18-8.48-4.2s-6.36-2.69-7.84-3.79c-.15-.11-1.12-1.46-1.1-1.56.34-2.11,1.44-2.41,3.43-1.99l16.13,8.02Z"/><path class="cls-1" d="M100.85,45.86c1.03.84.69,2.29,0,3.2-4.48,1.86-8.63,4.48-13.01,6.52-.87.4-1.9.69-2.79,1.05-.11.04-.11.45-.32.5-1.54.39-3.9-.38-3.43-2.23.05-.18,1.71-1.84,1.91-1.96.34-.2.87-.16,1.3-.39,4.55-2.49,9.35-4.55,13.91-7.02.75-.18,1.83-.17,2.44.32Z"/><path class="cls-1" d="M20.86,69.56c.06.02.77.84.79.9.55,1.56.11,1.93-1.11,2.76-4.42,2.99-10.93,4.95-15.59,7.79-2.38.9-4.44-2.21-2.07-3.63,4.92-2.94,10.92-4.89,15.94-7.74.66-.26,1.37-.31,2.06-.08Z"/><path class="cls-1" d="M1.16,61.52l17.47-.05c1.57.3,1.82,3.32,0,3.68H1.41c-1.86-.55-1.81-2.7-.26-3.63Z"/><path class="cls-1" d="M102.91,62.57c.07.12.44.14.48.34.15.73-.32,2.18-1.06,2.27h-17.25c-1.86.05-1.82-2.95-.44-3.55l17.38-.17c.71,0,.61.65.89,1.11Z"/></g></svg>