<?xml version="1.0" encoding="UTF-8"?><svg id="_圖層_2" xmlns="http://www.w3.org/2000/svg" viewBox="0 0 103.42 118.47"><defs><style>.cls-1{fill:#0eabb8;}</style></defs><g id="_圖層_1-2"><path class="cls-1" d="M70,0c-7.32,0-6.85,6.37-11.04,10.18-3.43,3.11-8.66,3.11-12.08,0-4.15-3.77-3.76-10.18-11.05-10.18-9.88,0-10.73,13.68-2.52,16,8.37,2.36,11.36,8.47,11.49,9.7.98,9.18,15.25,9.18,16.23,0,.04-.37,2.34-7.2,11.42-9.68,8.28-2.27,7.47-16.02-2.45-16.02Z"/><path class="cls-1" d="M70,28.63c-7.32,0-6.85,6.37-11.04,10.18-3.43,3.11-8.66,3.11-12.08,0-4.15-3.77-3.76-10.18-11.05-10.18-9.88,0-10.73,13.68-2.52,16,8.37,2.36,11.36,8.47,11.49,9.7.98,9.18,15.25,9.18,16.23,0,.04-.37,2.34-7.2,11.42-9.68,8.28-2.27,7.47-16.02-2.45-16.02Z"/><path class="cls-1" d="M70,57.26c-7.32,0-6.85,6.37-11.04,10.18-3.43,3.11-8.66,3.11-12.08,0-4.15-3.77-3.76-10.18-11.05-10.18-9.88,0-10.73,13.68-2.52,16,8.37,2.36,11.36,8.47,11.49,9.7.98,9.18,15.25,9.18,16.23,0,.04-.37,2.34-7.2,11.42-9.68,8.28-2.27,7.47-16.02-2.45-16.02Z"/><path class="cls-1" d="M70,85.89c-7.32,0-6.85,6.37-11.04,10.18-3.43,3.11-8.66,3.11-12.08,0-4.15-3.77-3.76-10.18-11.05-10.18-9.88,0-10.73,13.68-2.52,16,8.37,2.36,11.36,8.47,11.49,9.7.98,9.18,15.25,9.18,16.23,0,.04-.37,2.34-7.2,11.42-9.68,8.28-2.27,7.47-16.02-2.45-16.02Z"/><path class="cls-1" d="M21.49,49c-.27.23-1.86.41-2.32.19-4.95-2.98-11.68-5.05-16.42-8.15-2.27-1.48-.15-4.4,2.27-3.57l16.01,7.99c1.3.56,1.32,2.83.46,3.54Z"/><path class="cls-1" d="M100.83,69.49c1.62,1.35.5,4.08-2.13,3.52-2.01-.43-6.47-3.18-8.48-4.2s-6.36-2.69-7.84-3.79c-.15-.11-1.12-1.46-1.1-1.56.34-2.11,1.44-2.41,3.43-1.99l16.13,8.02Z"/><path class="cls-1" d="M100.85,37.79c1.03.84.69,2.29,0,3.2-4.48,1.86-8.63,4.48-13.01,6.52-.87.4-1.9.69-2.79,1.05-.11.04-.11.45-.32.5-1.54.39-3.9-.38-3.43-2.23.05-.18,1.71-1.84,1.91-1.96.34-.2.87-.16,1.3-.39,4.55-2.49,9.35-4.55,13.91-7.02.75-.18,1.83-.17,2.44.32Z"/><path class="cls-1" d="M20.86,61.48c.06.02.77.84.79.9.55,1.56.11,1.93-1.11,2.76-4.42,2.99-10.93,4.95-15.59,7.79-2.38.9-4.44-2.21-2.07-3.63,4.92-2.94,10.92-4.89,15.94-7.74.66-.26,1.37-.31,2.06-.08Z"/><path class="cls-1" d="M1.16,53.45l17.47-.05c1.57.3,1.82,3.32,0,3.68H1.41c-1.86-.55-1.81-2.7-.26-3.63Z"/><path class="cls-1" d="M102.91,54.49c.07.12.44.14.48.34.15.73-.32,2.18-1.06,2.27h-17.25c-1.86.05-1.82-2.95-.44-3.55l17.38-.17c.71,0,.61.65.89,1.11Z"/></g></svg>