<?xml version="1.0" encoding="UTF-8"?><svg id="_圖層_2" xmlns="http://www.w3.org/2000/svg" viewBox="0 0 121.72 126.1"><defs><style>.cls-1{fill:none;stroke:#0eabb8;stroke-linecap:round;stroke-linejoin:round;stroke-width:3.45px;}.cls-2{fill:#0eabb8;}</style></defs><g id="_圖層_1-2"><path class="cls-1" d="M33.65,124.17c.27-1.1.53-2.2.8-3.29,1.83-7.52,3.87-14.99,5.41-22.57,1.12-5.48-.58-10.52-3.95-14.98-6.18-8.17-11.99-15.87-14.34-26.07-2.21-9.57-1.33-19.88,2.76-28.84C31.28,13.19,46.43,3.68,62.84,2.08c7.75-.76,15.31-.41,22.76,2.07,9.53,3.18,18,11.48,22.04,20.6,1.84,4.15,2.89,8.65,3.1,13.19.1,2.16.24,4.69-.35,6.79-.61,2.18-1.33,3.85-.33,6.14.16.37.35.73.56,1.07,1.97,3.25,4.09,6.4,6.14,9.6.86,1.35,1.8,2.66,2.54,4.07,1.27,2.43.84,3.57-1.63,4.89-1.69.91-4.12,1.46-4.82,2.87-.43.87.23,2.06.56,2.85.47,1.13.95,2.32.85,3.58-.05.57-.26,1.14-.7,1.51-.15.13-.33.23-.47.36-.15.13-.26.32-.25.52.05.85.97.99.73,2.01-.21.9-.91,1.66-1.58,2.25-2.41,2.12-.76,6.55-.99,9.17-.16,1.84-.9,3.71-2.36,4.83-3,2.32-7.75,1.12-11.15.58-5.38-.85-12.37-.34-12.99,6.49-.52,5.68.16,11.44,1.97,16.85"/><path class="cls-2" d="M2.98,80.56c-1.04-.72-2.36-1.41-1.57-2.97.85-1.7,1.91-1.6,3.43-.82,3.4,1.74,9.32,5.43,12.42,7.68,2.54,1.85,2.53,4.02-.84,4.31-4.3-2.88-9.2-5.28-13.44-8.2Z"/><path class="cls-2" d="M17.66,98.86l-16.2-1.24c-2.27-1.22-1.83-3.79.9-4.02,1.59-.14,14.07.73,15.33,1.14,2.43.79,2.35,3.5-.04,4.12Z"/><path class="cls-2" d="M3.82,115.11c-1.44-.92-.96-2.56.25-3.5,1.38-1.08,11.06-5.99,12.87-6.64,2.65-.94,4.37,2.19,1.92,3.73l-13.33,6.71c-.53.17-1.27-.02-1.71-.3Z"/></g></svg>