<?xml version="1.0" encoding="UTF-8"?><svg id="_圖層_2" xmlns="http://www.w3.org/2000/svg" viewBox="0 0 109.89 121.47"><defs><style>.cls-1{fill:#de7f27;}</style></defs><g id="_圖層_1-2"><path class="cls-1" d="M11.45,1.07c.39-1.31,3.47-1.57,3.9.1-.1,8.23.89,16.34,3.1,24.23,2.04,7.26,5.74,13.2,4.33,21.33h37.33c-1.17-8.09,2.98-14.66,4.99-22,.58-2.13,2.34-8.6,2.34-10.33V1.73c0-.99,3.14-2.79,4.33-.33,1.59,3.31-.6,17.58-1.57,21.75-1.77,7.61-6.41,14.52-5.37,22.51.79,6.06,7.35,13.86,10.06,19.94,5.48,12.32,8.04,27.97,8.58,41.41.12,2.98.45,9.41-.05,12.01-.37,1.92-2.07,3.12-3.7,1.75-1.79-1.51-.74-14.34-.95-17.72-.83-13.25-3.68-26.55-9.26-38.58l-55.4-.09c-9.17,17.23-9.22,36.85-10.09,55.9-.42,1.44-2.84,1.56-3.6.47-.59-.85-.43-15.98-.29-18.35.72-12.69,3.99-28.31,9.63-39.69,3.78-7.64,10.21-13.18,8.73-22.67-1.15-7.36-7.03-17.55-7.03-24.96,0-2.94-.6-12.02,0-14Z"/><path class="cls-1" d="M43.28,84.87c3.42,3.67,4.39,28.74,5.4,34.69l-2.24,1.83c-.97,0-1.92-.92-2.19-1.83-1.36-4.54-.61-11.57-1.56-16.44l-1.24-5.08c-.78,5.19-1.43,10.45-2,15.66-.23,2.1.72,5.66-.95,7.05-1.22,1.02-2.73.64-3.39-.73-1.05-2.18,1.24-19.19,1.86-22.8.34-2.03,2.35-16.63,6.31-12.37Z"/><path class="cls-1" d="M106.76,60.72c1.26-.06,2.73-.31,3.05,1.41.36,1.87-.54,2.43-2.23,2.74-3.75.68-10.7,1.33-14.53,1.42-3.14.07-4.45-1.66-1.94-3.94,5.16-.32,10.52-1.38,15.66-1.63Z"/><path class="cls-1" d="M84,55.07l13.63-8.83c2.55-.4,3.75,1.9,1.72,3.75-1.18,1.07-11.63,7.95-12.88,8.39-2.41.85-3.99-1.36-2.47-3.3Z"/><path class="cls-1" d="M85.14,33.76c1.7-.14,2.31,1.45,1.93,2.93-.45,1.7-5.16,11.48-6.21,13.08-1.54,2.36-4.8.91-3.79-1.8l6.53-13.42c.32-.46,1.02-.76,1.54-.8Z"/></g></svg>