<svg width="16" height="15" viewBox="0 0 16 15" fill="none" xmlns="http://www.w3.org/2000/svg">
<g clip-path="url(#clip0_7_39)">
<path d="M1.12499 2.247H14.893C15.208 2.247 15.471 2.137 15.683 1.918C15.894 1.699 16 1.431 16 1.114C16 0.797999 15.894 0.532999 15.683 0.319999C15.5804 0.215233 15.4573 0.132747 15.3213 0.0776893C15.1854 0.0226314 15.0396 -0.00381573 14.893 -1.16316e-06H1.12499C0.976894 -0.00479686 0.829369 0.0206548 0.691437 0.0747988C0.553504 0.128943 0.428059 0.210642 0.322767 0.314904C0.217476 0.419167 0.134548 0.543802 0.0790511 0.681197C0.0235546 0.818591 -0.00334543 0.965857 -5.15155e-06 1.114C-5.15155e-06 1.431 0.105995 1.699 0.316995 1.918C0.528995 2.138 0.797995 2.247 1.12499 2.247ZM1.12499 8.624H14.893C15.208 8.624 15.471 8.514 15.683 8.294C15.894 8.076 16 7.808 16 7.491C16 7.174 15.894 6.909 15.683 6.696C15.5804 6.59123 15.4573 6.50875 15.3213 6.45369C15.1854 6.39863 15.0396 6.37218 14.893 6.376H1.12499C0.976807 6.3712 0.829198 6.39668 0.691197 6.45088C0.553195 6.50509 0.427703 6.58688 0.322397 6.69125C0.217091 6.79562 0.134184 6.92038 0.0787493 7.05789C0.0233144 7.1954 -0.0034835 7.34277 -5.15155e-06 7.491C-5.15155e-06 7.808 0.105995 8.076 0.316995 8.295C0.528995 8.514 0.797995 8.624 1.12499 8.624ZM1.12499 15H7.63699C7.78356 15.0047 7.92957 14.9798 8.06628 14.9268C8.20299 14.8737 8.3276 14.7936 8.43263 14.6913C8.53767 14.589 8.62098 14.4665 8.67757 14.3312C8.73416 14.1959 8.76288 14.0506 8.762 13.904C8.762 13.574 8.656 13.301 8.444 13.082C8.34003 12.9736 8.21449 12.8883 8.07549 12.8314C7.93648 12.7746 7.7871 12.7475 7.63699 12.752H1.12499C0.797995 12.752 0.528995 12.862 0.316995 13.082C0.105995 13.301 -5.15155e-06 13.575 -5.15155e-06 13.904C-0.000888052 14.0506 0.0278267 14.1959 0.08442 14.3312C0.141013 14.4665 0.224321 14.589 0.329357 14.6913C0.434393 14.7936 0.558997 14.8737 0.695709 14.9268C0.832421 14.9798 0.97843 15.0047 1.12499 15Z" fill="#292929"/>
</g>
<defs>
<clipPath id="clip0_7_39">
<rect width="16" height="15" fill="white"/>
</clipPath>
</defs>
</svg>
